<?xml version="1.0" encoding="utf-8"?>
<!-- Generator: Adobe Illustrator 27.2.0, SVG Export Plug-In . SVG Version: 6.00 Build 0)  -->
<svg version="1.1" id="BorisFX2023_x5F_Color" xmlns="http://www.w3.org/2000/svg" xmlns:xlink="http://www.w3.org/1999/xlink"
	 x="0px" y="0px" viewBox="0 0 380 100" style="enable-background:new 0 0 380 100;" xml:space="preserve">
<style type="text/css">
	.st0{fill:#0BAEFF;}
	.st1{fill:#FFFFFF;}
</style>
<rect x="1.4" y="1.9" class="st0" width="376.9" height="96.3"/>
<polyline class="st1" points="266.5,84.5 17.1,84.5 17.1,15.3 266.5,15.3 "/>
<path d="M104.8,30.1c-11.2,0-18.4,8.6-18.4,19.9c0,11.3,7.2,19.9,18.4,19.9c11.2,0,18.5-8.7,18.5-19.9
	C123.3,38.7,116,30.1,104.8,30.1z M167.6,30.8h-13.6v16.8h13.6c5.2,0,9.1-3.3,9.1-8.4C176.7,34.1,172.8,30.8,167.6,30.8z
	 M339.1,49.5l26.4-36.9h-17.4l-18.6,27.2l-20.4-27.2h-297v75h262.9V57.4h27.2V43.5h-27.2V26.6h27l17.8,23l-26.8,38h17.2l19.3-28
	l20.7,28h17.3L339.1,49.5z M53.2,80.4h-33V19.7h32c11.6,0,17.5,7.4,17.5,15.5c0,7.6-4.7,12.7-10.5,13.9c6.5,1,11.7,7.3,11.7,14.9
	C70.9,73.1,64.8,80.4,53.2,80.4z M104.8,81.5c-18.3,0-31.7-13.1-31.7-31.4c0-18.3,13.4-31.4,31.7-31.4c18.4,0,31.8,13.1,31.8,31.4
	C136.6,68.4,123.2,81.5,104.8,81.5z M175.5,80.4l-11.9-21.8h-9.5v21.8h-12.9V19.7h28.4c12.7,0,20.4,8.3,20.4,19.6
	c0,10.7-6.7,16.5-13.3,18l13.7,23.1H175.5z M208,80.4h-12.9V19.7H208V80.4z M238.9,81.5c-11.7,0-20-3.9-25.8-9.7l7.1-9.8
	c4.3,4.5,10.9,8.2,19.3,8.2c7.1,0,10.6-3.4,10.6-6.8c0-4.6-5.3-6.1-12.3-7.7c-9.9-2.3-22.7-5-22.7-18.6c0-10.1,8.7-18.3,23-18.3
	c9.7,0,17.7,2.9,23.7,8.5l-7.2,9.5c-4.9-4.6-11.5-6.6-17.4-6.6c-5.8,0-8.9,2.6-8.9,6.2c0,4.1,5.1,5.4,12.1,7
	c10,2.3,22.8,5.3,22.8,18.8C263.2,73.1,255.3,81.5,238.9,81.5z M49.8,55.1H33.2v14.3h16.7c4.9,0,7.8-2.8,7.8-7.2
	C57.7,58.4,54.9,55.1,49.8,55.1z M56.5,37.3c0-3.7-2.7-6.7-7.1-6.7H33.2v13.4h16.2C53.8,44.1,56.5,41.2,56.5,37.3z"/>
</svg>
